<?xml version="1.0" encoding="UTF-8" standalone="no"?>
<svg width="907px" height="260px" viewBox="0 0 907 260" version="1.1" xmlns="http://www.w3.org/2000/svg" xmlns:xlink="http://www.w3.org/1999/xlink">
    <!-- Generator: Sketch 39.1 (31720) - http://www.bohemiancoding.com/sketch -->
    <title>Group 5</title>
    <desc>Created with Sketch.</desc>
    <defs></defs>
    <g id="Page-1" stroke="none" stroke-width="1" fill="none" fill-rule="evenodd">
        <g id="homepage" transform="translate(-79.000000, -3405.000000)">
            <g id="Group-5" transform="translate(0.000000, 3345.000000)">
                <rect id="Rectangle-2" x="0" y="0" width="1024" height="341"></rect>
                <path d="M953,148 L909,238" id="Line" stroke="#FFFFFF" stroke-width="2" stroke-linecap="square"></path>
                <path d="M733,281 L611,297" id="Line-Copy-4" stroke="#FFFFFF" stroke-width="2" stroke-linecap="square"></path>
                <path d="M857,163 L881,234" id="Line" stroke="#FFFFFF" stroke-width="2" stroke-linecap="square"></path>
                <circle id="Oval-2" stroke="#FFFFFF" stroke-width="2" cx="165" cy="84" r="23"></circle>
                <circle id="Oval-2-Copy" stroke="#FFFFFF" stroke-width="2" cx="229" cy="182" r="23"></circle>
                <circle id="Oval-2-Copy-6" stroke="#FFFFFF" stroke-width="2" cx="91" cy="162" r="11"></circle>
                <circle id="Oval-2-Copy-3" stroke="#FFFFFF" stroke-width="2" cx="846" cy="143" r="23"></circle>
                <circle id="Oval-2-Copy-7" stroke="#FFFFFF" stroke-width="2" cx="590" cy="300" r="18"></circle>
                <circle id="Oval-2-Copy-8" stroke="#FFFFFF" stroke-width="2" cx="751" cy="274" r="18"></circle>
                <path d="M893,279 C905.702549,279 916,268.702549 916,256 C916,247.960996 911.875679,240.885278 905.627546,236.773357 C902.002912,234.387971 897.663545,233 893,233 C880.297451,233 870,243.297451 870,256 C870,268.702549 880.297451,279 893,279 Z" id="Oval-2-Copy-5" stroke="#FFFFFF" stroke-width="2"></path>
                <path d="M161,107 L128,259" id="Line" stroke="#FFFFFF" stroke-width="2" stroke-linecap="square"></path>
                <path d="M103,164 L205,180" id="Line-Copy-3" stroke="#FFFFFF" stroke-width="2" stroke-linecap="square"></path>
                <path d="M209,198 L149,268" id="Line-Copy-2" stroke="#FFFFFF" stroke-width="2" stroke-linecap="square"></path>
                <circle id="Oval-2-Copy-4" stroke="#FFFFFF" stroke-width="2" cx="962" cy="127" r="23"></circle>
                <circle id="Oval-2-Copy-2" stroke="#FFFFFF" stroke-width="2" cx="131" cy="290" r="29"></circle>
            </g>
        </g>
    </g>
</svg>