<?xml version="1.0" encoding="UTF-8" standalone="no"?>
<svg width="240px" height="215px" viewBox="0 0 240 215" version="1.1" xmlns="http://www.w3.org/2000/svg" xmlns:xlink="http://www.w3.org/1999/xlink">
    <!-- Generator: Sketch 39.1 (31720) - http://www.bohemiancoding.com/sketch -->
    <title>Group Copy 2</title>
    <desc>Created with Sketch.</desc>
    <defs></defs>
    <g id="Page-1" stroke="none" stroke-width="1" fill="none" fill-rule="evenodd">
        <g id="Desktop" transform="translate(-57.000000, -1776.000000)" fill="#AAAAAA">
            <g id="Group-9" transform="translate(57.000000, 1520.000000)">
                <g id="Group-Copy-2" transform="translate(0.000000, 255.774481)">
                    <path d="M167.742857,159.916953 C162.942857,158.285147 155.314286,156.579169 152.914286,153.983114 C150.428571,151.461233 150.428571,133.140506 150.428571,133.140506 C150.428571,133.140506 156.428571,128.319262 158.914286,122.904634 C161.4,117.490006 163.028571,102.803756 163.028571,102.803756 C163.028571,102.803756 163.542857,102.952102 164.314286,102.952102 C166.114286,102.952102 169.371429,101.91368 170.914286,95.0897652 C172.8,86.7082181 176.4,82.332012 175.457143,76.1756544 C174.771429,72.0219673 172.714286,71.3544104 171.514286,71.3544104 C170.914286,71.3544104 170.485714,71.5027564 170.485714,71.5027564 C170.485714,71.5027564 175.371429,65.2722257 175.371429,44.0587524 C175.371429,22.2518951 155.914286,0.741729838 120,0.667556854 C84,0.741729838 64.6285714,22.2518951 64.6285714,44.0587524 C64.6285714,65.1980528 69.5142857,71.5027564 69.5142857,71.5027564 C69.5142857,71.5027564 69.0857143,71.3544104 68.4857143,71.3544104 C67.2,71.3544104 65.1428571,72.0219673 64.5428571,76.1756544 C63.6,82.332012 67.1142857,86.7823911 69.0857143,95.0897652 C70.6285714,101.91368 73.8857143,102.952102 75.6857143,102.952102 C76.4571429,102.952102 76.9714286,102.803756 76.9714286,102.803756 C76.9714286,102.803756 78.6,117.564179 81.0857143,122.904634 C83.5714286,128.319262 89.5714286,133.140506 89.5714286,133.140506 C89.5714286,133.140506 89.5714286,151.461233 87.0857143,153.983114 C84.6,156.504996 77.0571429,158.285147 72.2571429,159.916953 C65.4,162.216316 49.7142857,163.106391 40.1142857,165.999138 C30.5142857,168.891884 0.857142857,180.98208 0.857142857,214.359923 L239.142857,214.359923 C239.142857,180.98208 209.571429,168.891884 199.885714,165.999138 C190.285714,163.106391 174.6,162.216316 167.742857,159.916953 Z" id="Shape"></path>
                </g>
            </g>
        </g>
    </g>
</svg>