<?xml version="1.0" encoding="UTF-8" standalone="no"?>
<svg width="910px" height="576px" viewBox="0 0 910 576" version="1.1" xmlns="http://www.w3.org/2000/svg" xmlns:xlink="http://www.w3.org/1999/xlink">
    <!-- Generator: Sketch 39.1 (31720) - http://www.bohemiancoding.com/sketch -->
    <title>Group 12</title>
    <desc>Created with Sketch.</desc>
    <defs></defs>
    <g id="Page-1" stroke="none" stroke-width="1" fill="none" fill-rule="evenodd">
        <g id="homepage" transform="translate(-41.000000, -18.000000)">
            <g id="Group-12" transform="translate(42.000000, 19.000000)">
                <path d="M24.5,58.5 L58.5,90.5" id="Line" stroke="#FFFFFF" stroke-linecap="square"></path>
                <path d="M209.5,68.5 L299.5,17.5" id="Line" stroke="#FFFFFF" stroke-linecap="square"></path>
                <path d="M201.5,447.5 L262.5,415.5" id="Line" stroke="#FFFFFF" stroke-linecap="square"></path>
                <path d="M102.5,525.5 L171.5,471.5" id="Line" stroke="#FFFFFF" stroke-linecap="square"></path>
                <path d="M163.5,448.5 L42.5,393.5" id="Line" stroke="#FFFFFF" stroke-linecap="square"></path>
                <circle id="Oval" stroke="#FFFFFF" stroke-width="2" cx="76.5" cy="111.5" r="26.5"></circle>
                <circle id="Oval-Copy-6" stroke="#FFFFFF" stroke-width="2" cx="191" cy="76" r="19"></circle>
                <circle id="Oval-Copy-2" stroke="#FFFFFF" stroke-width="2" cx="125.5" cy="199.5" r="26.5"></circle>
                <circle id="Oval-Copy-9" stroke="#FFFFFF" stroke-width="2" cx="77.5" cy="536.5" r="27.5"></circle>
                <circle id="Oval-Copy-3" stroke="#FFFFFF" stroke-width="2" cx="854.5" cy="472.5" r="26.5"></circle>
                <circle id="Oval-Copy-4" stroke="#FFFFFF" stroke-width="2" cx="757.5" cy="547.5" r="26.5"></circle>
                <ellipse id="Oval-Copy-8" stroke="#FFFFFF" stroke-width="2" cx="182.5" cy="454.5" rx="18.5" ry="18.5"></ellipse>
                <circle id="Oval-Copy-10" stroke="#FFFFFF" stroke-width="2" cx="274" cy="409" r="12"></circle>
                <circle id="Oval-Copy-11" stroke="#FFFFFF" stroke-width="2" cx="311" cy="12" r="12"></circle>
                <circle id="Oval-Copy-12" stroke="#FFFFFF" stroke-width="2" cx="17" cy="48" r="12"></circle>
                <circle id="Oval-Copy-5" stroke="#FFFFFF" stroke-width="2" cx="21" cy="385" r="21"></circle>
                <circle id="Oval-Copy-7" stroke="#FFFFFF" stroke-width="2" cx="890.5" cy="93.5" r="17.5"></circle>
                <circle id="Oval" stroke="#FFFFFF" stroke-width="2" cx="793" cy="138" r="35"></circle>
                <circle id="Oval-Copy" stroke="#FFFFFF" stroke-width="2" cx="696" cy="406" r="35"></circle>
                <path d="M123.5,226.5 L79.5,507.5" id="Line" stroke="#FFFCFC" stroke-linecap="square"></path>
                <path d="M843.5,498.5 L782.5,534.5" id="Line" stroke="#FFFFFF" stroke-linecap="square"></path>
                <path d="M793.5,173.5 L762.5,519.5" id="Line" stroke="#FFFFFF" stroke-linecap="square"></path>
                <path d="M90.5,134.5 L115.5,175.5" id="Line" stroke="#FFFFFF" stroke-linecap="square"></path>
                <path d="M142.5,177.5 L181.5,93.5" id="Line" stroke="#FFFFFF" stroke-linecap="square"></path>
                <path d="M727.5,421.5 L828.5,462.5" id="Line" stroke="#FFFFFF" stroke-linecap="square"></path>
                <g id="Group-3" transform="translate(611.316949, 128.533011) rotate(62.000000) translate(-611.316949, -128.533011) translate(558.316949, 89.533011)" stroke="#FFFFFF">
                    <circle id="Oval-Copy-14" stroke-width="2" cx="87.7176725" cy="17.5838397" r="17.5"></circle>
                    <circle id="Oval-Copy-13" stroke-width="2" cx="10.5" cy="67.5" r="10.5"></circle>
                    <path d="M22.5,64.5 L73.8685455,29.5024227" id="Line-Copy" stroke-linecap="square"></path>
                </g>
                <path d="M822.5,117.5 L873.5,100.5" id="Line" stroke="#FFFFFF" stroke-linecap="square"></path>
            </g>
        </g>
    </g>
</svg>