<?xml version="1.0" encoding="UTF-8" standalone="no"?>
<svg width="101px" height="18px" viewBox="0 0 101 18" version="1.1" xmlns="http://www.w3.org/2000/svg" xmlns:xlink="http://www.w3.org/1999/xlink">
    <!-- Generator: Sketch 39.1 (31720) - http://www.bohemiancoding.com/sketch -->
    <title>Group</title>
    <desc>Created with Sketch.</desc>
    <defs></defs>
    <g id="Page-1" stroke="none" stroke-width="1" fill="none" fill-rule="evenodd">
        <g id="Group">
            <path d="M0.125,12.948 C0.125,14.963 1.758,16.596 3.773,16.596 C5.788,16.596 7.421,14.963 7.421,12.948 L3.773,12.948 L3.773,9.3 C1.758,9.3 0.125,10.933 0.125,12.948 Z" id="Stroke-2" fill="#D69CF4"></path>
            <path d="M4.685,12.036 L8.333,12.036 C8.333,10.021 6.7,8.388 4.685,8.388 L4.685,12.036 Z" id="Stroke-3" fill="#FFCC2E"></path>
            <path d="M60.0528,8.0227 L57.4998,8.0227 C56.1898,8.0227 55.1288,6.9607 55.1288,5.6507 L55.1288,3.0987 C55.1288,1.7887 56.1898,0.7267 57.4998,0.7267 L60.0528,0.7267 C61.3628,0.7267 62.4248,1.7887 62.4248,3.0987 L62.4248,5.6507 C62.4248,6.9607 61.3628,8.0227 60.0528,8.0227 L60.0528,8.0227 Z" id="Stroke-4" fill="#FFC96D"></path>
            <path d="M56.4488,2.8893 L57.8928,2.8893" id="Stroke-5" stroke="#FFFFFF" stroke-width="0.25" stroke-linecap="round" stroke-linejoin="round"></path>
            <path d="M57.1708,3.6113 L57.1708,2.1673" id="Stroke-6" stroke="#FFFFFF" stroke-width="0.25" stroke-linecap="round" stroke-linejoin="round"></path>
            <path d="M56.6603,5.5611 L57.6813,6.5821" id="Stroke-7" stroke="#FFFFFF" stroke-width="0.25" stroke-linecap="round" stroke-linejoin="round"></path>
            <path d="M56.6603,6.5822 L57.6813,5.5612" id="Stroke-8" stroke="#FFFFFF" stroke-width="0.25" stroke-linecap="round" stroke-linejoin="round"></path>
            <path d="M59.6598,2.8893 L61.1038,2.8893" id="Stroke-9" stroke="#FFFFFF" stroke-width="0.25" stroke-linecap="round" stroke-linejoin="round"></path>
            <path d="M59.6598,6.4409 L61.1038,6.4409" id="Stroke-10" stroke="#FFFFFF" stroke-width="0.25" stroke-linecap="round" stroke-linejoin="round"></path>
            <path d="M59.6598,5.7024 L61.1038,5.7024" id="Stroke-11" stroke="#FFFFFF" stroke-width="0.25" stroke-linecap="round" stroke-linejoin="round"></path>
            <path d="M39.301,12.7035 C39.301,13.7505 39.777,14.6705 40.847,15.1995 L40.847,16.8935 L42.704,15.6655 C42.786,15.6695 42.866,15.6745 42.949,15.6745 C45.093,15.6745 46.597,14.3445 46.597,12.7035 C46.597,11.0625 45.093,9.7315 42.949,9.7315 C40.805,9.7315 39.301,11.0625 39.301,12.7035 Z" id="Stroke-27" fill="#7BCADC"></path>
            <path d="M44.7552,12.7415 C44.7552,12.8065 44.7032,12.8585 44.6382,12.8585 C44.5742,12.8585 44.5212,12.8065 44.5212,12.7415 C44.5212,12.6765 44.5742,12.6245 44.6382,12.6245 C44.7032,12.6245 44.7552,12.6765 44.7552,12.7415 L44.7552,12.7415 Z" id="Stroke-28" stroke="#FFFFFF" stroke-width="0.25" stroke-linecap="round" stroke-linejoin="round"></path>
            <path d="M43.0659,12.7415 C43.0659,12.8065 43.0139,12.8585 42.9489,12.8585 C42.8849,12.8585 42.8319,12.8065 42.8319,12.7415 C42.8319,12.6765 42.8849,12.6245 42.9489,12.6245 C43.0139,12.6245 43.0659,12.6765 43.0659,12.7415 L43.0659,12.7415 Z" id="Stroke-29" stroke="#FFFFFF" stroke-width="0.25" stroke-linecap="round" stroke-linejoin="round"></path>
            <path d="M41.3766,12.7415 C41.3766,12.8065 41.3246,12.8585 41.2596,12.8585 C41.1956,12.8585 41.1426,12.8065 41.1426,12.7415 C41.1426,12.6765 41.1956,12.6245 41.2596,12.6245 C41.3246,12.6245 41.3766,12.6765 41.3766,12.7415 L41.3766,12.7415 Z" id="Stroke-30" stroke="#FFFFFF" stroke-width="0.25" stroke-linecap="round" stroke-linejoin="round"></path>
            <path d="M79.8846,12.4481 C79.8846,11.6611 79.3946,11.0231 78.7896,11.0231 C78.1846,11.0231 77.6946,11.6611 77.6946,12.4481 C77.6946,13.1201 77.9486,13.6811 78.4876,13.8321 L78.3136,17.4921 C78.3136,17.7551 78.5266,17.9681 78.7896,17.9681 C79.0526,17.9681 79.2656,17.7551 79.2656,17.4921 L79.0916,13.8321 C79.6306,13.6811 79.8846,13.1201 79.8846,12.4481 L79.8846,12.4481 Z" id="Stroke-31" fill="#F47AAB"></path>
            <path d="M76.2612,11.0231 L76.2612,12.6671 L75.9072,12.6671 L75.9072,11.0231 L75.4472,11.0231 L75.4472,12.6671 L75.0922,12.6671 L75.0922,11.0231 L74.5822,11.0231 L74.5822,12.7931 C74.5822,13.2891 74.9192,13.7031 75.3752,13.8291 L75.2002,17.4921 C75.2002,17.7551 75.4142,17.9681 75.6772,17.9681 C75.9402,17.9681 76.1532,17.7551 76.1532,17.4921 L75.9792,13.8291 C76.4352,13.7031 76.7722,13.2891 76.7722,12.7931 L76.7722,11.0231 L76.2612,11.0231 L76.2612,11.0231 Z" id="Stroke-32" fill="#F47AAB"></path>
            <polyline id="Stroke-35" fill="#4CC456" points="98.593 3 100.486 3 100.486 7.652 93.215 7.652 93.215 3 95.108 3"></polyline>
            <path d="M96.926,5.289 C96.926,5.289 95,2.989 95,1.926 C95,0.862 95.863,0 96.926,0 C97.99,0 98.852,0.862 98.852,1.926 C98.852,2.989 96.926,5.289 96.926,5.289 Z" id="Stroke-34" fill="#FF8686"></path>
            <path d="M21.3288,7.4134 C21.1288,7.4134 20.9668,7.2514 20.9668,7.0514 L20.9668,2.6764 C20.9668,2.4774 21.1288,2.3154 21.3288,2.3154 L27.8748,2.3154 C28.0748,2.3154 28.2368,2.4774 28.2368,2.6764 L28.2368,7.0514 C28.2368,7.2514 28.0748,7.4134 27.8748,7.4134 L21.3288,7.4134 L21.3288,7.4134 Z" id="Stroke-36" fill="#9FA3A7"></path>
            <path d="M27.2026,4.864 C27.2026,5.648 26.5676,6.283 25.7836,6.283 C25.0006,6.283 24.3656,5.648 24.3656,4.864 C24.3656,4.081 25.0006,3.446 25.7836,3.446 C26.5676,3.446 27.2026,4.081 27.2026,4.864 L27.2026,4.864 Z" id="Stroke-37" fill="#D7DADC"></path>
            <polygon id="Stroke-38" fill="#9FA3A7" points="22.042 2.315 23.415 2.315 23.415 1.475 22.042 1.475"></polygon>
            <path d="M10.4664,10.4809 L17.6524,6.6409" id="Stroke-41" stroke="#0C3848" stroke-width="0.25" stroke-linecap="round" stroke-linejoin="round"></path>
            <path d="M30.642,6.2828 L38.312,9.7318" id="Stroke-42" stroke="#0C3848" stroke-width="0.25"></path>
            <path d="M47.7592,10.0581 L53.5292,6.0721" id="Stroke-43" stroke="#0C3848" stroke-width="0.25"></path>
            <path d="M65.2988,6.3507 L72.6528,12.0957" id="Stroke-44" stroke="#0C3848" stroke-width="0.25"></path>
            <path d="M82.3179,12.8769 L89.5029,6.9079" id="Stroke-45" stroke="#0C3848" stroke-width="0.25"></path>
            <path d="M97.701,1.851 C97.701,2.321 97.321,2.702 96.851,2.702 C96.38,2.702 96,2.321 96,1.851 C96,1.381 96.38,1 96.851,1 C97.321,1 97.701,1.381 97.701,1.851 L97.701,1.851 Z" id="Stroke-33" fill="#FFFFFF"></path>
        </g>
    </g>
</svg>