<?xml version="1.0" encoding="UTF-8" standalone="no"?>
<svg width="534px" height="471px" viewBox="0 0 534 471" version="1.1" xmlns="http://www.w3.org/2000/svg" xmlns:xlink="http://www.w3.org/1999/xlink">
    <!-- Generator: Sketch 39.1 (31720) - http://www.bohemiancoding.com/sketch -->
    <title>Group 9</title>
    <desc>Created with Sketch.</desc>
    <defs></defs>
    <g id="Page-1" stroke="none" stroke-width="1" fill="none" fill-rule="evenodd">
        <g id="Desktop" transform="translate(-57.000000, -1520.000000)">
            <g id="Group-9" transform="translate(57.000000, 1520.000000)">
                <g id="Group-Copy-2" transform="translate(0.000000, 255.774481)" fill="#AAAAAA">
                    <path d="M167.742857,159.916953 C162.942857,158.285147 155.314286,156.579169 152.914286,153.983114 C150.428571,151.461233 150.428571,133.140506 150.428571,133.140506 C150.428571,133.140506 156.428571,128.319262 158.914286,122.904634 C161.4,117.490006 163.028571,102.803756 163.028571,102.803756 C163.028571,102.803756 163.542857,102.952102 164.314286,102.952102 C166.114286,102.952102 169.371429,101.91368 170.914286,95.0897652 C172.8,86.7082181 176.4,82.332012 175.457143,76.1756544 C174.771429,72.0219673 172.714286,71.3544104 171.514286,71.3544104 C170.914286,71.3544104 170.485714,71.5027564 170.485714,71.5027564 C170.485714,71.5027564 175.371429,65.2722257 175.371429,44.0587524 C175.371429,22.2518951 155.914286,0.741729838 120,0.667556854 C84,0.741729838 64.6285714,22.2518951 64.6285714,44.0587524 C64.6285714,65.1980528 69.5142857,71.5027564 69.5142857,71.5027564 C69.5142857,71.5027564 69.0857143,71.3544104 68.4857143,71.3544104 C67.2,71.3544104 65.1428571,72.0219673 64.5428571,76.1756544 C63.6,82.332012 67.1142857,86.7823911 69.0857143,95.0897652 C70.6285714,101.91368 73.8857143,102.952102 75.6857143,102.952102 C76.4571429,102.952102 76.9714286,102.803756 76.9714286,102.803756 C76.9714286,102.803756 78.6,117.564179 81.0857143,122.904634 C83.5714286,128.319262 89.5714286,133.140506 89.5714286,133.140506 C89.5714286,133.140506 89.5714286,151.461233 87.0857143,153.983114 C84.6,156.504996 77.0571429,158.285147 72.2571429,159.916953 C65.4,162.216316 49.7142857,163.106391 40.1142857,165.999138 C30.5142857,168.891884 0.857142857,180.98208 0.857142857,214.359923 L239.142857,214.359923 C239.142857,180.98208 209.571429,168.891884 199.885714,165.999138 C190.285714,163.106391 174.6,162.216316 167.742857,159.916953 Z" id="Shape"></path>
                </g>
                <g id="Group-Copy-3" transform="translate(294.000000, 255.774481)" fill="#838383">
                    <path d="M167.742857,159.916953 C162.942857,158.285147 155.314286,156.579169 152.914286,153.983114 C150.428571,151.461233 150.428571,133.140506 150.428571,133.140506 C150.428571,133.140506 156.428571,128.319262 158.914286,122.904634 C161.4,117.490006 163.028571,102.803756 163.028571,102.803756 C163.028571,102.803756 163.542857,102.952102 164.314286,102.952102 C166.114286,102.952102 169.371429,101.91368 170.914286,95.0897652 C172.8,86.7082181 176.4,82.332012 175.457143,76.1756544 C174.771429,72.0219673 172.714286,71.3544104 171.514286,71.3544104 C170.914286,71.3544104 170.485714,71.5027564 170.485714,71.5027564 C170.485714,71.5027564 175.371429,65.2722257 175.371429,44.0587524 C175.371429,22.2518951 155.914286,0.741729838 120,0.667556854 C84,0.741729838 64.6285714,22.2518951 64.6285714,44.0587524 C64.6285714,65.1980528 69.5142857,71.5027564 69.5142857,71.5027564 C69.5142857,71.5027564 69.0857143,71.3544104 68.4857143,71.3544104 C67.2,71.3544104 65.1428571,72.0219673 64.5428571,76.1756544 C63.6,82.332012 67.1142857,86.7823911 69.0857143,95.0897652 C70.6285714,101.91368 73.8857143,102.952102 75.6857143,102.952102 C76.4571429,102.952102 76.9714286,102.803756 76.9714286,102.803756 C76.9714286,102.803756 78.6,117.564179 81.0857143,122.904634 C83.5714286,128.319262 89.5714286,133.140506 89.5714286,133.140506 C89.5714286,133.140506 89.5714286,151.461233 87.0857143,153.983114 C84.6,156.504996 77.0571429,158.285147 72.2571429,159.916953 C65.4,162.216316 49.7142857,163.106391 40.1142857,165.999138 C30.5142857,168.891884 0.857142857,180.98208 0.857142857,214.359923 L239.142857,214.359923 C239.142857,180.98208 209.571429,168.891884 199.885714,165.999138 C190.285714,163.106391 174.6,162.216316 167.742857,159.916953 Z" id="Shape"></path>
                </g>
                <g id="cloud" transform="translate(167.000000, 0.000000)" fill="#AAAAAA">
                    <path d="M245.121524,108.174219 C245.121524,119.37194 240.333995,128.93226 230.758935,136.855176 C221.183876,144.778092 209.62997,148.739551 196.097219,148.739551 L57.1950224,148.739551 C41.4493689,148.739551 27.9804518,144.109046 16.7882711,134.848037 C5.59609036,125.587028 0,114.442126 0,101.41333 C0,92.1171081 3.02146323,83.6131778 9.0643897,75.9015392 C15.1073162,68.1899005 23.0652545,62.4325813 32.9382048,58.6295814 C32.7679816,56.6576555 32.6828699,55.1434982 32.6828699,54.0871093 C32.6828699,39.1568135 39.0662429,26.4097213 51.832989,15.8458328 C64.5997351,5.28194427 80.004942,0 98.0486097,0 C111.496249,0 123.688491,3.09874064 134.625337,9.29622191 C145.562183,15.4937032 153.541399,23.5926844 158.562986,33.5931656 C164.520801,29.2267583 171.585067,27.0435547 179.755785,27.0435547 C188.777618,27.0435547 196.480222,29.6845268 202.863595,34.9664711 C209.246968,40.2484153 212.438654,46.6219614 212.438654,54.0871093 C212.438654,59.3690536 210.693866,64.2284423 207.204289,68.6652755 C218.18369,70.7780532 227.24808,75.5141966 234.397458,82.8737056 C241.546835,90.2332146 245.121524,98.666719 245.121524,108.174219 L245.121524,108.174219 Z" id="Shape"></path>
                </g>
                <g id="cloud" transform="translate(103.000000, 63.000000)" fill="#8C8B8B">
                    <path d="M138.184407,79.3542026 C132.450615,83.9482321 125.531838,86.2452468 117.428077,86.2452468 L34.2498559,86.2452468 C24.8209521,86.2452468 16.7554169,83.5602918 10.0532501,78.1903818 C3.35108337,72.8204718 0,66.3582036 0,58.8035774 C0,53.4132495 1.80933019,48.4823245 5.42799056,44.0108025 C9.04665093,39.5392804 13.8120699,36.2009523 19.7242474,33.9958182 C19.6223133,32.8524153 19.5713462,31.9744452 19.5713462,31.3619079 C19.5713462,22.7047146 23.3938748,15.3134316 31.0389319,9.18805897 C38.683989,3.06268632 47.9090246,0 58.7140387,0 C66.7668322,0 74.0678617,1.79677598 80.6171273,5.39032793 C87.1663929,8.98387988 91.9445536,13.6799989 94.9516094,19.478685 C98.5193028,16.9468643 102.749568,15.680954 107.642404,15.680954 C113.044911,15.680954 117.657429,17.2122971 121.479958,20.2749835 C125.302486,23.3376698 127.21375,27.0333113 127.21375,31.3619079 C127.21375,34.4245943 126.168926,37.2422657 124.079277,39.8149222 C130.654026,41.0399967 136.082017,43.7862055 140.363249,48.0535484 C144.644481,52.3208913 146.785097,57.2109805 146.785097,62.7238159 C146.785097,69.2167109 143.9182,74.7601731 138.184407,79.3542026 Z" id="Shape"></path>
                </g>
                <g id="Group-2" transform="translate(215.000000, 34.000000)">
                    <g id="Group-7" transform="translate(35.000000, 22.000000)"></g>
                    <g id="Group-8" stroke-width="2">
                        <path d="M24.2737051,60.6052632 L14.2352941,78.6500487" id="Line-Copy-10" stroke="#FFFFFF" stroke-linecap="square"></path>
                        <path d="M9.70588235,98 C15.0662932,98 19.4117647,93.6701223 19.4117647,88.3289474 C19.4117647,82.9877725 15.0662932,78.6578947 9.70588235,78.6578947 C4.34547155,78.6578947 0,82.9877725 0,88.3289474 C0,93.6701223 4.34547155,98 9.70588235,98 Z" id="Oval-4-Copy-12" stroke="#15ABFF"></path>
                        <path d="M39.4705882,50.2894737 L67.9411765,50.2894737" id="Line-Copy-9" stroke="#FFFFFF" stroke-linecap="square"></path>
                        <path d="M39.4705882,9.02631579 L67.9411765,9.02631579" id="Line-Copy-8" stroke="#FFFFFF" stroke-linecap="square"></path>
                        <path d="M28.4705882,19.9868421 L28.4705882,40.6184211" id="Line-Copy-7" stroke="#FFFFFF" stroke-linecap="square"></path>
                        <path d="M29.1176471,60.6052632 C34.4780579,60.6052632 38.8235294,56.2753854 38.8235294,50.9342105 C38.8235294,45.5930356 34.4780579,41.2631579 29.1176471,41.2631579 C23.7572363,41.2631579 19.4117647,45.5930356 19.4117647,50.9342105 C19.4117647,56.2753854 23.7572363,60.6052632 29.1176471,60.6052632 Z" id="Oval-4-Copy-11" stroke="#15ABFF"></path>
                        <path d="M77.6470588,19.9868421 L77.6470588,40.0000009" id="Line-Copy-6" stroke="#FFFCFC" stroke-linecap="square"></path>
                        <ellipse id="Oval-4-Copy-10" stroke="#15ABFF" cx="78.2941176" cy="50.9342105" rx="9.70588235" ry="9.67105263"></ellipse>
                        <ellipse id="Oval-4-Copy-9" stroke="#15ABFF" cx="78.2941176" cy="9.67105263" rx="9.70588235" ry="9.67105263"></ellipse>
                        <ellipse id="Oval-4-Copy-8" stroke="#15ABFF" cx="29.1176471" cy="9.67105263" rx="9.70588235" ry="9.67105263"></ellipse>
                    </g>
                </g>
                <path d="M109.5,322 L131.5,322" id="Line" stroke="#FFFFFF" stroke-width="2" stroke-linecap="square"></path>
                <path d="M109.5,290 L131.5,290" id="Line-Copy-2" stroke="#FFFFFF" stroke-width="2" stroke-linecap="square"></path>
                <path d="M139,298.5 L139,314.5" id="Line-Copy-14" stroke="#FFFFFF" stroke-width="2" stroke-linecap="square"></path>
                <circle id="Oval-4-Copy" stroke="#15ABFF" stroke-width="2" cx="139.5" cy="322.5" r="7.5"></circle>
                <circle id="Oval-4-Copy-2" stroke="#15ABFF" stroke-width="2" cx="139.5" cy="290.5" r="7.5"></circle>
                <path d="M101,298.5 L101,314.5" id="Line" stroke="#FFFFFF" stroke-width="2" stroke-linecap="square"></path>
                <circle id="Oval-4" stroke="#15ABFF" stroke-width="2" cx="101.5" cy="322.5" r="7.5"></circle>
                <circle id="Oval-4-Copy-3" stroke="#15ABFF" stroke-width="2" cx="101.5" cy="290.5" r="7.5"></circle>
                <path d="M403.756954,322 L396,335.993915" id="Line-Copy-13" stroke="#FFFFFF" stroke-width="2" stroke-linecap="square"></path>
                <path d="M392.5,351 C396.642136,351 400,347.642136 400,343.5 C400,339.357864 396.642136,336 392.5,336 C388.357864,336 385,339.357864 385,343.5 C385,347.642136 388.357864,351 392.5,351 Z" id="Oval-4-Copy-16" stroke="#15ABFF" stroke-width="2"></path>
                <path d="M415,314 L437,314" id="Line-Copy-12" stroke="#FFFFFF" stroke-width="2" stroke-linecap="square"></path>
                <path d="M445.5,322 C449.642136,322 453,318.642136 453,314.5 C453,310.357864 449.642136,307 445.5,307 C441.357864,307 438,310.357864 438,314.5 C438,318.642136 441.357864,322 445.5,322 Z" id="Oval-4-Copy-14" stroke="#15ABFF" stroke-width="2"></path>
                <path d="M407,290.5 L407,306.5" id="Line-Copy-11" stroke="#FFFFFF" stroke-width="2" stroke-linecap="square"></path>
                <path d="M407.5,322 C411.642136,322 415,318.642136 415,314.5 C415,310.357864 411.642136,307 407.5,307 C403.357864,307 400,310.357864 400,314.5 C400,318.642136 403.357864,322 407.5,322 Z" id="Oval-4-Copy-15" stroke="#15ABFF" stroke-width="2"></path>
                <path d="M407.5,290 C411.642136,290 415,286.642136 415,282.5 C415,278.357864 411.642136,275 407.5,275 C403.357864,275 400,278.357864 400,282.5 C400,286.642136 403.357864,290 407.5,290 Z" id="Oval-4-Copy-13" stroke="#15ABFF" stroke-width="2"></path>
                <path d="M172.27,186.490909 C178.7483,186.490909 184,181.23229 184,174.745455 C184,168.258619 178.7483,163 172.27,163 C165.7917,163 160.54,168.258619 160.54,174.745455 C160.54,181.23229 165.7917,186.490909 172.27,186.490909 Z" id="Oval-5" fill="#AAAAAA"></path>
                <ellipse id="Oval-6" fill="#AAAAAA" cx="142.77" cy="204.618182" rx="8.97" ry="8.98181818"></ellipse>
                <ellipse id="Oval-7" fill="#AAAAAA" cx="125.52" cy="239.472727" rx="5.52" ry="5.52727273"></ellipse>
                <path d="M352.73,186.490909 C359.2083,186.490909 364.46,181.23229 364.46,174.745455 C364.46,168.258619 359.2083,163 352.73,163 C346.2517,163 341,168.258619 341,174.745455 C341,181.23229 346.2517,186.490909 352.73,186.490909 Z" id="Oval-5" fill="#838383" transform="translate(352.730000, 174.745455) scale(-1, 1) translate(-352.730000, -174.745455) "></path>
                <ellipse id="Oval-6" fill="#838383" transform="translate(382.230000, 204.618182) scale(-1, 1) translate(-382.230000, -204.618182) " cx="382.23" cy="204.618182" rx="8.97" ry="8.98181818"></ellipse>
                <ellipse id="Oval-7" fill="#838383" transform="translate(399.480000, 239.472727) scale(-1, 1) translate(-399.480000, -239.472727) " cx="399.48" cy="239.472727" rx="5.52" ry="5.52727273"></ellipse>
            </g>
        </g>
    </g>
</svg>