<?xml version="1.0" encoding="UTF-8" standalone="no"?>
<svg width="181px" height="269px" viewBox="0 0 181 269" version="1.1" xmlns="http://www.w3.org/2000/svg" xmlns:xlink="http://www.w3.org/1999/xlink">
    <!-- Generator: Sketch 39.1 (31720) - http://www.bohemiancoding.com/sketch -->
    <title>Group 7</title>
    <desc>Created with Sketch.</desc>
    <defs></defs>
    <g id="Page-1" stroke="none" stroke-width="1" fill="none" fill-rule="evenodd">
        <g id="homepage" transform="translate(-422.000000, -786.000000)">
            <g id="Group-7" transform="translate(422.000000, 786.000000)">
                <g id="Layer_1" transform="translate(0.000000, 167.774481)">
                    <g id="Group">
                        <path d="M113.003795,75.516339 C110.741295,74.7457641 107.145536,73.9401631 106.014286,72.7142485 C104.842634,71.52336 104.842634,62.8719056 104.842634,62.8719056 C104.842634,62.8719056 107.670759,60.595207 108.842411,58.0382995 C110.014062,55.4813919 110.781696,48.5462179 110.781696,48.5462179 C110.781696,48.5462179 111.024107,48.6162702 111.387723,48.6162702 C112.236161,48.6162702 113.771429,48.1259043 114.498661,44.9035003 C115.3875,40.9455474 117.084375,38.8790057 116.639955,35.9718368 C116.316741,34.0103734 115.347098,33.6951383 114.781473,33.6951383 C114.498661,33.6951383 114.296652,33.7651905 114.296652,33.7651905 C114.296652,33.7651905 116.599554,30.8229955 116.599554,20.805522 C116.599554,10.5078394 107.428348,0.350261312 90.5,0.315235181 C73.53125,0.350261312 64.4004464,10.5078394 64.4004464,20.805522 C64.4004464,30.7879694 66.7033482,33.7651905 66.7033482,33.7651905 C66.7033482,33.7651905 66.5013393,33.6951383 66.2185268,33.6951383 C65.6125,33.6951383 64.6428571,34.0103734 64.3600446,35.9718368 C63.915625,38.8790057 65.5720982,40.9805736 66.5013393,44.9035003 C67.2285714,48.1259043 68.7638393,48.6162702 69.6122768,48.6162702 C69.9758929,48.6162702 70.2183036,48.5462179 70.2183036,48.5462179 C70.2183036,48.5462179 70.9859375,55.516418 72.1575893,58.0382995 C73.3292411,60.595207 76.1573661,62.8719056 76.1573661,62.8719056 C76.1573661,62.8719056 76.1573661,71.52336 74.9857143,72.7142485 C73.8140625,73.9051369 70.2587054,74.7457641 67.9962054,75.516339 C64.7640625,76.602149 57.3705357,77.0224626 52.8455357,78.3884817 C48.3205357,79.7545008 34.3415179,85.4637602 34.3415179,101.225519 L146.658482,101.225519 C146.658482,85.4637602 132.719866,79.7545008 128.154464,78.3884817 C123.629464,77.0224626 116.235937,76.602149 113.003795,75.516339 Z" id="Shape" fill="#8C8B8B"></path>
                        <path d="M45.2904018,73.9051369 C48.9265625,72.328961 52.4819196,72.328961 55.2292411,72.0137258 C55.2292411,72.0137258 56.7645089,69.8421057 51.7142857,69.0715308 C51.7142857,69.0715308 44.8055804,67.5654072 43.9975446,66.72478 C43.1895089,65.8841529 43.6743304,61.2256774 43.6743304,61.2256774 C43.6743304,61.2256774 53.3303571,60.9454684 57.1685268,58.0032733 C50.90625,49.8772109 54.2595982,40.3851293 52.9667411,31.5235181 C51.7142857,22.696933 45.6136161,17.1628043 33.9375,17.1628043 C33.8970982,17.1628043 33.9375,17.1628043 33.5334821,17.1628043 L33.5334821,17.1628043 C22.2209821,17.1628043 16.403125,22.696933 15.1102679,31.5585442 C13.8174107,40.4201555 17.534375,50.963021 11.1104911,58.0733256 C14.70625,60.84039 23.5946429,60.9804945 24.6046875,60.9804945 L24.6854911,60.9804945 L24.7258929,60.9454684 C24.7258929,60.9454684 25.1299107,65.919179 24.321875,66.7598061 C23.5138393,67.6004333 21.1301339,68.3710082 19.5140625,68.6862434 C15.9587054,69.3517399 12.2013393,70.4375499 9.09040179,71.3832555 C5.97946429,72.2939349 0,77.7580114 0,84.4129763 L32.4022321,84.4129763 C33.2910714,81.6108858 39.3917411,76.4970706 45.2904018,73.9051369 L45.2904018,73.9051369 Z" id="Shape" fill="#AAAAAA"></path>
                        <path d="M148.597768,84.4129763 L181,84.4129763 C181,77.7580114 175.020536,72.2939349 171.909598,71.3482293 C168.798661,70.4025238 165.000893,69.3167137 161.485937,68.6512172 C159.829464,68.3359821 157.486161,67.5654072 156.678125,66.72478 C155.870089,65.8841529 156.274107,60.9104422 156.274107,60.9104422 L156.314509,60.9454684 L156.395312,60.9454684 C157.405357,60.9454684 166.334152,60.84039 169.929911,58.0382995 C163.506027,50.9279948 167.182589,40.3851293 165.889732,31.5235181 C164.596875,22.696933 158.779018,17.1628043 147.466518,17.1628043 L147.466518,17.1628043 L147.0625,17.1628043 C135.386384,17.1628043 129.245312,22.696933 127.992857,31.5585442 C126.7,40.4201555 130.053348,49.912237 123.791071,58.0382995 C127.629241,60.9804945 137.285268,61.2607035 137.285268,61.2607035 C137.285268,61.2607035 137.770089,65.919179 136.962054,66.7598061 C136.154018,67.6004333 129.245312,69.1065569 129.245312,69.1065569 C124.195089,69.8771318 125.730357,72.048752 125.730357,72.048752 C128.477679,72.3639871 132.073437,72.3639871 135.669196,73.9401631 C141.608259,76.4970706 147.708929,81.6108858 148.597768,84.4129763 L148.597768,84.4129763 Z" id="Shape" fill="#AAAAAA"></path>
                    </g>
                </g>
                <path d="M90.9551021,90 L90.9551021,162" id="Line" stroke="#7EE79C" stroke-width="8" stroke-linecap="square"></path>
                <g id="cloud" transform="translate(40.632653, 0.000000)" fill="#AAAAAA">
                    <path d="M129.285714,60.1845158 C129.285714,66.4145535 126.760603,71.7335952 121.710379,76.1416408 C116.660156,80.5496864 110.56622,82.7537092 103.428571,82.7537092 L30.1666667,82.7537092 C21.8618552,82.7537092 14.7578745,80.1774514 8.8547247,75.0249359 C2.9515749,69.8724204 0,63.6717696 0,56.4229835 C0,51.2508767 1.59362599,46.5195745 4.78087798,42.2290767 C7.96812996,37.938579 12.1654266,34.7353992 17.3727679,32.6195374 C17.2829861,31.5224238 17.2380952,30.6799973 17.2380952,30.0922579 C17.2380952,21.7855409 20.6049107,14.6934853 27.3385417,8.81609118 C34.0721726,2.93869706 42.1974206,0 51.7142857,0 C58.8070437,0 65.2376612,1.72403561 71.0061384,5.17210682 C76.7746156,8.62017804 80.9831349,13.1261802 83.6316964,18.6901133 C86.7740575,16.2607904 90.5,15.0461289 94.8095238,15.0461289 C99.5679563,15.0461289 103.63058,16.5154775 106.997396,19.4541745 C110.364211,22.3928716 112.047619,25.9388994 112.047619,30.0922579 C112.047619,33.030955 111.127356,35.7345562 109.28683,38.2030618 C115.077753,39.3785406 119.858631,42.0135723 123.629464,46.1081569 C127.400298,50.2027414 129.285714,54.8948611 129.285714,60.1845158 L129.285714,60.1845158 Z" id="Shape"></path>
                </g>
                <g id="cloud" transform="translate(2.216327, 38.421365)" fill="#8C8B8B">
                    <path d="M65.375861,40.7901647 C62.6631696,43.1516177 59.3898554,44.3323442 55.5559184,44.3323442 L16.2038095,44.3323442 C11.7429393,44.3323442 7.92708688,42.9522061 4.75625213,40.19193 C1.58541738,37.4316538 0,34.1098766 0,30.2265983 C0,27.4558268 0.856004819,24.9212006 2.56801446,22.6227197 C4.28002409,20.3242388 6.534572,18.6082496 9.33165816,17.4747522 C9.28343254,16.8870127 9.25931973,16.4357128 9.25931973,16.1208524 C9.25931973,11.6708255 11.0677806,7.87150998 14.6847024,4.72290599 C18.3016241,1.574302 22.6660431,0 27.7779592,0 C31.5877834,0 35.0419437,0.923590504 38.1404401,2.77077151 C41.2389364,4.61795252 43.4995125,7.03188225 44.9221684,10.0125607 C46.6100652,8.71113771 48.6114286,8.06042622 50.9262585,8.06042622 C53.4822166,8.06042622 55.664426,8.84757722 57.4728869,10.4218792 C59.2813478,11.9961812 60.1855782,13.895839 60.1855782,16.1208524 C60.1855782,17.6951544 59.6912656,19.1435123 58.7026403,20.465926 C61.813193,21.0956467 64.3812075,22.5072709 66.4066837,24.7007983 C68.4321599,26.8943258 69.444898,29.4079613 69.444898,32.2417049 C69.444898,35.5792251 68.0885523,38.4287117 65.375861,40.7901647 Z" id="Shape"></path>
                </g>
            </g>
        </g>
    </g>
</svg>