<?xml version="1.0" encoding="UTF-8" standalone="no"?>
<svg width="959px" height="893px" viewBox="0 0 959 893" version="1.1" xmlns="http://www.w3.org/2000/svg" xmlns:xlink="http://www.w3.org/1999/xlink">
    <!-- Generator: Sketch 39.1 (31720) - http://www.bohemiancoding.com/sketch -->
    <title>Group 4</title>
    <desc>Created with Sketch.</desc>
    <defs></defs>
    <g id="Page-1" stroke="none" stroke-width="1" fill="none" fill-rule="evenodd">
        <g id="tutorial" transform="translate(-46.000000, -3363.000000)">
            <g id="Group-4" transform="translate(0.000000, 3360.000000)">
                <rect id="Rectangle" x="0" y="0" width="1027" height="938"></rect>
                <circle id="Oval-Copy-11" stroke="#FFFFFF" stroke-width="2" cx="361" cy="16" r="12"></circle>
                <g id="Group-2" transform="translate(47.000000, 13.000000)">
                    <path d="M27.5,49.5 L61.5,81.5" id="Line" stroke="#FFFFFF" stroke-linecap="square"></path>
                    <path d="M212.5,59.5 L302.5,8.5" id="Line" stroke="#FFFFFF" stroke-linecap="square"></path>
                    <path d="M204.5,438.5 L265.5,406.5" id="Line" stroke="#FFFFFF" stroke-linecap="square"></path>
                    <path d="M105.5,516.5 L174.5,462.5" id="Line" stroke="#FFFFFF" stroke-linecap="square"></path>
                    <path d="M43.5,751.5 L104.5,826.5" id="Line-Copy-2" stroke="#FFFFFF" stroke-linecap="square"></path>
                    <path d="M166.5,439.5 L45.5,384.5" id="Line" stroke="#FFFFFF" stroke-linecap="square"></path>
                    <circle id="Oval" stroke="#FFFFFF" stroke-width="2" cx="79.5" cy="102.5" r="26.5"></circle>
                    <circle id="Oval-Copy-6" stroke="#FFFFFF" stroke-width="2" cx="194" cy="67" r="19"></circle>
                    <circle id="Oval-Copy-2" stroke="#FFFFFF" stroke-width="2" cx="128.5" cy="190.5" r="26.5"></circle>
                    <circle id="Oval-Copy-9" stroke="#FFFFFF" stroke-width="2" cx="80.5" cy="527.5" r="27.5"></circle>
                    <circle id="Oval-Copy-3" stroke="#FFFFFF" stroke-width="2" cx="903.5" cy="415.5" r="26.5"></circle>
                    <circle id="Oval-Copy-4" stroke="#FFFFFF" stroke-width="2" cx="806.5" cy="490.5" r="26.5"></circle>
                    <ellipse id="Oval-Copy-8" stroke="#FFFFFF" stroke-width="2" cx="185.5" cy="445.5" rx="18.5" ry="18.5"></ellipse>
                    <circle id="Oval-Copy-10" stroke="#FFFFFF" stroke-width="2" cx="277" cy="400" r="12"></circle>
                    <circle id="Oval-Copy-12" stroke="#FFFFFF" stroke-width="2" cx="20" cy="39" r="12"></circle>
                    <circle id="Oval-Copy-5" stroke="#FFFFFF" stroke-width="2" cx="24" cy="376" r="21"></circle>
                    <circle id="Oval-Copy-7" stroke="#FFFFFF" stroke-width="2" cx="939.5" cy="36.5" r="17.5"></circle>
                    <circle id="Oval" stroke="#FFFFFF" stroke-width="2" cx="842" cy="81" r="35"></circle>
                    <circle id="Oval-Copy" stroke="#FFFFFF" stroke-width="2" cx="745" cy="349" r="35"></circle>
                    <path d="M126.5,217.5 L82.5,498.5" id="Line" stroke="#FFFCFC" stroke-linecap="square"></path>
                    <path d="M892.5,441.5 L831.5,477.5" id="Line" stroke="#FFFFFF" stroke-linecap="square"></path>
                    <path d="M842.5,116.5 L811.5,462.5" id="Line" stroke="#FFFFFF" stroke-linecap="square"></path>
                    <path d="M93.5,125.5 L118.5,166.5" id="Line" stroke="#FFFFFF" stroke-linecap="square"></path>
                    <path d="M145.5,168.5 L184.5,84.5" id="Line" stroke="#FFFFFF" stroke-linecap="square"></path>
                    <path d="M776.5,364.5 L877.5,405.5" id="Line" stroke="#FFFFFF" stroke-linecap="square"></path>
                    <g id="Group-3" transform="translate(666.316949, 65.105613) rotate(62.000000) translate(-666.316949, -65.105613) translate(613.316949, 26.105613)" stroke="#FFFFFF">
                        <circle id="Oval-Copy-14" stroke-width="2" cx="87.7176725" cy="17.5838397" r="17.5"></circle>
                        <circle id="Oval-Copy-13" stroke-width="2" cx="10.5" cy="67.5" r="10.5"></circle>
                        <path d="M22.5,64.5 L73.8685455,29.5024227" id="Line-Copy" stroke-linecap="square"></path>
                    </g>
                    <path d="M871.5,60.5 L922.5,43.5" id="Line" stroke="#FFFFFF" stroke-linecap="square"></path>
                    <path d="M885,700 L841,790" id="Line" stroke="#FFFFFF" stroke-width="2" stroke-linecap="square"></path>
                    <path d="M665,833 L582,858" id="Line-Copy-4" stroke="#FFFFFF" stroke-width="2" stroke-linecap="square"></path>
                    <path d="M789,715 L813,786" id="Line" stroke="#FFFFFF" stroke-width="2" stroke-linecap="square"></path>
                    <ellipse id="Oval-2-Copy" stroke="#FFFFFF" stroke-width="2" cx="122" cy="841" rx="23" ry="23"></ellipse>
                    <ellipse id="Oval-2-Copy-3" stroke="#FFFFFF" stroke-width="2" cx="778" cy="695" rx="23" ry="23"></ellipse>
                    <circle id="Oval-2-Copy-7" stroke="#FFFFFF" stroke-width="2" cx="564" cy="864" r="18"></circle>
                    <circle id="Oval-2-Copy-8" stroke="#FFFFFF" stroke-width="2" cx="683" cy="826" r="18"></circle>
                    <path d="M825,831 C837.702549,831 848,820.702549 848,808 C848,799.960996 843.875679,792.885278 837.627546,788.773357 C834.002912,786.387971 829.663545,785 825,785 C812.297451,785 802,795.297451 802,808 C802,820.702549 812.297451,831 825,831 Z" id="Oval-2-Copy-5" stroke="#FFFFFF" stroke-width="2"></path>
                    <ellipse id="Oval-2-Copy-4" stroke="#FFFFFF" stroke-width="2" cx="894" cy="679" rx="23" ry="23"></ellipse>
                    <circle id="Oval-2-Copy-2" stroke="#FFFFFF" stroke-width="2" cx="29" cy="728" r="29"></circle>
                </g>
            </g>
        </g>
    </g>
</svg>