<?xml version="1.0" encoding="UTF-8" standalone="no"?>
<svg width="1024px" height="282px" viewBox="0 0 1024 282" version="1.1" xmlns="http://www.w3.org/2000/svg" xmlns:xlink="http://www.w3.org/1999/xlink">
    <!-- Generator: Sketch 39.1 (31720) - http://www.bohemiancoding.com/sketch -->
    <title>Group 14</title>
    <desc>Created with Sketch.</desc>
    <defs></defs>
    <g id="Page-1" stroke="none" stroke-width="1" fill="none" fill-rule="evenodd">
        <g id="homepage">
            <g id="Group-14">
                <rect id="Rectangle-4" fill="#14ACFF" x="0" y="0" width="1027" height="282"></rect>
                <path d="M66.5,77.5 L100.5,109.5" id="Line" stroke="#FFFFFF" stroke-linecap="square"></path>
                <path d="M251.5,87.5 L341.5,36.5" id="Line" stroke="#FFFFFF" stroke-linecap="square"></path>
                <circle id="Oval" stroke="#FFFFFF" stroke-width="2" cx="118.5" cy="130.5" r="26.5"></circle>
                <circle id="Oval-Copy-6" stroke="#FFFFFF" stroke-width="2" cx="233" cy="95" r="19"></circle>
                <circle id="Oval-Copy-2" stroke="#FFFFFF" stroke-width="2" cx="167.5" cy="218.5" r="26.5"></circle>
                <circle id="Oval-Copy-11" stroke="#FFFFFF" stroke-width="2" cx="353" cy="31" r="12"></circle>
                <circle id="Oval-Copy-12" stroke="#FFFFFF" stroke-width="2" cx="59" cy="67" r="12"></circle>
                <circle id="Oval-Copy-7" stroke="#FFFFFF" stroke-width="2" cx="932.5" cy="112.5" r="17.5"></circle>
                <circle id="Oval" stroke="#FFFFFF" stroke-width="2" cx="835" cy="157" r="35"></circle>
                <path d="M132.5,153.5 L157.5,194.5" id="Line" stroke="#FFFFFF" stroke-linecap="square"></path>
                <path d="M184.5,196.5 L223.5,112.5" id="Line" stroke="#FFFFFF" stroke-linecap="square"></path>
                <g id="Group-3" transform="translate(653.316949, 147.533011) rotate(62.000000) translate(-653.316949, -147.533011) translate(600.316949, 108.533011)" stroke="#FFFFFF">
                    <circle id="Oval-Copy-14" stroke-width="2" cx="87.7176725" cy="17.5838397" r="17.5"></circle>
                    <circle id="Oval-Copy-13" stroke-width="2" cx="10.5" cy="67.5" r="10.5"></circle>
                    <path d="M22.5,64.5 L73.8685455,29.5024227" id="Line-Copy" stroke-linecap="square"></path>
                </g>
                <path d="M864.5,136.5 L915.5,119.5" id="Line" stroke="#FFFFFF" stroke-linecap="square"></path>
            </g>
        </g>
    </g>
</svg>